<?xml version="1.0" standalone="no"?><!DOCTYPE svg PUBLIC "-//W3C//DTD SVG 1.1//EN" "http://www.w3.org/Graphics/SVG/1.1/DTD/svg11.dtd"><svg t="1560937376489" class="icon" style="" viewBox="0 0 1024 1024" version="1.1" xmlns="http://www.w3.org/2000/svg" p-id="3596" xmlns:xlink="http://www.w3.org/1999/xlink" width="200" height="200"><defs><style type="text/css"></style></defs><path d="M941.98897778 960.67887408h-864.1042963c-21.48124445 0-38.83614815-17.3549037-38.83614815-38.83614816V372.55395555c0-21.48124445 17.3549037-38.83614815 38.83614815-38.83614814h864.1042963c21.48124445 0 38.83614815 17.3549037 38.83614814 38.83614814v549.28877037c0 21.48124445-17.3549037 38.83614815-38.83614814 38.83614816z m-825.26814815-77.6722963h786.432V411.3901037h-786.432v471.61647408z" p-id="3597" fill="#a2a2a2"></path><path d="M941.98897778 403.98696297h-864.1042963c-21.48124445 0-38.83614815-17.3549037-38.83614815-38.83614815V154.95016297c0-21.48124445 17.3549037-38.83614815 38.83614815-38.83614815h864.1042963c21.48124445 0 38.83614815 17.3549037 38.83614814 38.83614815V365.15081482c0 21.48124445-17.3549037 38.83614815-38.83614814 38.83614815z m-825.26814815-77.6722963h786.432V193.78631111h-786.432V326.31466667z" p-id="3598" fill="#a2a2a2"></path><path d="M302.40616297 59.07342222h77.67229628v182.04444445h-77.67229628zM661.15508148 59.07342222h77.6722963v182.04444445h-77.6722963zM239.29742222 498.65007408h111.04711111v77.67229629h-111.04711111zM460.5421037 498.65007408h111.04711112v77.67229629h-111.04711112zM681.78678518 498.65007408h111.04711112v77.67229629h-111.04711112zM239.29742222 683.12177778h111.04711111v77.6722963h-111.04711111zM460.5421037 683.12177778h111.04711112v77.6722963h-111.04711112zM681.78678518 683.12177778h111.04711112v77.6722963h-111.04711112z" p-id="3599" fill="#a2a2a2"></path></svg>